<svg width="128" height="119" viewBox="0 0 128 119" fill="none" xmlns="http://www.w3.org/2000/svg">
<path fill-rule="evenodd" clip-rule="evenodd" d="M34.1876 44.6712L127.431 67.0938L38.7849 57.5092L25.7847 71.1896L34.1876 44.6712Z" fill="#BEB58E"/>
<path d="M25.7847 71.1896L43.382 70.3471L38.7849 57.5092L25.7847 71.1896Z" fill="#716B44"/>
<path d="M25.7266 21.152L122.52 65.3989L34.5605 44.2464L25.7266 21.152Z" fill="#EEECDB" stroke="#BEB58E"/>
<path d="M124.417 67.2714L48.9617 84.5427L39.5231 58.0917L124.417 67.2714Z" fill="#EEECDB" stroke="#BEB58E"/>
<path d="M87.4485 62.7752C87.1207 68.8388 79.7231 74.1716 70.3795 74.6573C56.0714 75.401 49.1237 66.957 48.7088 58.5763L87.4485 62.7752Z" fill="#FFD84E"/>
<path d="M54.7293 73.9326L49.6853 80.7889" stroke="#FFCD4E" stroke-width="2" stroke-linecap="round"/>
<path d="M47.452 62.8642L42.6472 63.159" stroke="#FFCD4E" stroke-width="2" stroke-linecap="round"/>
<path d="M100.185 67.2197L91.3131 65.3805" stroke="#FFCD4E" stroke-width="2" stroke-linecap="round"/>
<path d="M71.7872 75.8756L72.0458 78.2264" stroke="#FFCD4E" stroke-width="2" stroke-linecap="round"/>
<path d="M86.0397 71.0272L89.3088 74.1568" stroke="#FFCD4E" stroke-width="2" stroke-linecap="round"/>
<path d="M46.3977 47.6085C51.2324 43.0105 58.8426 44.1888 66.0798 45.938C71.9013 47.345 83.5424 52.5111 85.1892 56.939L46.3977 47.6085Z" fill="#FFD84E"/>
<path d="M46.931 58.3812C46.029 56.5315 45.6199 50.8733 46.3977 47.6085L85.1892 56.939C85.7324 58.8716 85.7658 61.3844 85.4673 62.5507L46.931 58.3812Z" fill="#C5992A"/>
<path d="M49.9378 42.4021L43.9728 34.3917" stroke="#FFCD4E" stroke-width="2" stroke-linecap="round"/>
<path d="M88.6311 51.016L84.2524 52.7244" stroke="#FFCD4E" stroke-width="2" stroke-linecap="round"/>
<path d="M76.4464 45.4367L75.3995 47.0728" stroke="#FFCD4E" stroke-width="2" stroke-linecap="round"/>
<path d="M62.9576 40.225L63.1023 42.6546" stroke="#FFCD4E" stroke-width="2" stroke-linecap="round"/>
<path d="M35.2452 37.1934C36.0293 37.4142 35.4532 38.1638 34.6692 37.9429C34.0004 37.5722 34.4612 36.9725 35.2452 37.1934Z" fill="#E0CAEF"/>
<path d="M50.5393 35.3039C50.8974 35.4047 50.6343 35.7471 50.2761 35.6463C49.9706 35.4769 50.1811 35.203 50.5393 35.3039Z" fill="#E0CAEF"/>
<path d="M47.0768 68.3869C47.8608 68.6077 47.2848 69.3573 46.5007 69.1364C45.8319 68.7657 46.2928 68.166 47.0768 68.3869Z" fill="#E0CAEF"/>
<path d="M41.5232 42.2478C41.7845 42.3214 41.7845 42.3214 41.5232 42.2478C42.2229 42.992 40.5705 43.0736 40.3935 42.4767C40.3935 42.4767 40.5088 42.3268 40.2474 42.2531C39.9552 41.8061 41.4923 41.8744 41.5232 42.2478Z" fill="#E0CAEF"/>
<path d="M103.519 58.1459C103.78 58.2195 103.78 58.2195 103.519 58.1459C104.218 58.8901 102.566 58.9717 102.389 58.3747C102.389 58.3747 102.504 58.2248 102.243 58.1512C101.951 57.7042 103.488 57.7724 103.519 58.1459Z" fill="#E0CAEF"/>
<path d="M108.557 66.782C108.819 66.7653 108.819 66.7653 108.557 66.782C109.68 67.4955 108.449 68.3592 107.849 67.6124C107.849 67.6124 107.824 67.3523 107.562 67.369C106.988 66.8822 108.245 66.2786 108.557 66.782Z" fill="#E0CAEF"/>
<path d="M37.1252 29.7102C37.3866 29.7838 37.3866 29.7838 37.1252 29.7102C37.825 30.4544 36.1726 30.536 35.9956 29.9391C35.9956 29.9391 36.1108 29.7892 35.8495 29.7156C35.5572 29.2685 37.0943 29.3368 37.1252 29.7102Z" fill="#E0CAEF"/>
<path d="M98.1223 70.5672C98.9068 70.5171 99.0091 71.5575 98.2246 71.6076C97.44 71.6577 97.3377 70.6173 98.1223 70.5672Z" fill="#E0CAEF"/>
<path d="M55.5421 37.1503C56.5221 37.0877 56.6499 38.3873 55.6699 38.4499C54.6898 38.5125 54.562 37.2129 55.5421 37.1503Z" fill="#E0CAEF"/>
<path d="M58.8933 77.912C59.6778 77.8619 59.7801 78.9022 58.9956 78.9523C58.211 79.0024 58.1087 77.9621 58.8933 77.912Z" fill="#E0CAEF"/>
<path d="M91.0599 55.3092C91.844 55.5301 91.3831 56.1297 90.5991 55.9089C89.8151 55.688 90.2759 55.0884 91.0599 55.3092Z" fill="#E0CAEF"/>
</svg>
